<mxfile host="app.diagrams.net" modified="2021-06-26T03:06:03.607Z" agent="5.0 (Windows NT 10.0; Win64; x64) AppleWebKit/537.36 (KHTML, like Gecko) Chrome/91.0.4472.114 Safari/537.36" etag="bQPoGITResSXkYu9SbS6" version="14.8.1" type="github">
  <diagram name="Page-1" id="e7e014a7-5840-1c2e-5031-d8a46d1fe8dd">
    <mxGraphModel dx="1422" dy="757" grid="1" gridSize="10" guides="1" tooltips="1" connect="1" arrows="1" fold="1" page="1" pageScale="1" pageWidth="3300" pageHeight="2339" background="none" math="0" shadow="0">
      <root>
        <mxCell id="0" />
        <mxCell id="1" parent="0" />
        <mxCell id="2" value="司机" style="swimlane;whiteSpace=wrap" parent="1" vertex="1">
          <mxGeometry x="10" y="60" width="230" height="570" as="geometry" />
        </mxCell>
        <mxCell id="rych2ewyiRJrFdUpB_B1-47" style="edgeStyle=orthogonalEdgeStyle;rounded=0;orthogonalLoop=1;jettySize=auto;html=1;exitX=0.5;exitY=1;exitDx=0;exitDy=0;entryX=0.5;entryY=0;entryDx=0;entryDy=0;" edge="1" parent="2" source="rych2ewyiRJrFdUpB_B1-44" target="rych2ewyiRJrFdUpB_B1-45">
          <mxGeometry relative="1" as="geometry" />
        </mxCell>
        <mxCell id="rych2ewyiRJrFdUpB_B1-44" value="煤矿装煤" style="rounded=1;whiteSpace=wrap;html=1;" vertex="1" parent="2">
          <mxGeometry x="20" y="130" width="190" height="40" as="geometry" />
        </mxCell>
        <mxCell id="rych2ewyiRJrFdUpB_B1-45" value="&lt;div&gt;&lt;span&gt;过重磅后&lt;/span&gt;&lt;/div&gt;&lt;div style=&quot;text-align: left&quot;&gt;&lt;span&gt;1、将发运商、煤矿、煤种、矿吨、离矿时间填写至APP。&lt;/span&gt;&lt;/div&gt;&lt;div style=&quot;text-align: left&quot;&gt;&lt;span&gt;2、将煤矿磅单上传至APP。&lt;/span&gt;&lt;/div&gt;&lt;div style=&quot;text-align: left&quot;&gt;&lt;span&gt;3、APP生成二维码&lt;/span&gt;&lt;/div&gt;" style="rounded=1;whiteSpace=wrap;html=1;" vertex="1" parent="2">
          <mxGeometry x="20" y="200" width="190" height="90" as="geometry" />
        </mxCell>
        <mxCell id="rych2ewyiRJrFdUpB_B1-65" value="离场" style="rounded=1;whiteSpace=wrap;html=1;" vertex="1" parent="2">
          <mxGeometry x="20" y="450" width="180" height="50" as="geometry" />
        </mxCell>
        <mxCell id="3" value="磅房" style="swimlane;whiteSpace=wrap" parent="1" vertex="1">
          <mxGeometry x="240" y="60" width="240" height="570" as="geometry" />
        </mxCell>
        <mxCell id="rych2ewyiRJrFdUpB_B1-46" value="&lt;div&gt;司机扫描二位码&amp;nbsp; &amp;nbsp;过毛&lt;/div&gt;&lt;div style=&quot;text-align: left&quot;&gt;&lt;span&gt;1、红外检查&lt;br&gt;&lt;/span&gt;&lt;/div&gt;&lt;div style=&quot;text-align: left&quot;&gt;&lt;span&gt;2、图像抓拍&lt;/span&gt;&lt;/div&gt;&lt;div style=&quot;text-align: left&quot;&gt;&lt;span&gt;3、采集毛重重量&lt;/span&gt;&lt;/div&gt;" style="rounded=1;whiteSpace=wrap;html=1;" vertex="1" parent="3">
          <mxGeometry x="19.5" y="213" width="201" height="64" as="geometry" />
        </mxCell>
        <mxCell id="rych2ewyiRJrFdUpB_B1-55" value="&lt;div&gt;司机扫描二位码&amp;nbsp; &amp;nbsp;过皮&lt;/div&gt;&lt;div style=&quot;text-align: left&quot;&gt;&lt;span&gt;1、红外检查&lt;br&gt;&lt;/span&gt;&lt;/div&gt;&lt;div style=&quot;text-align: left&quot;&gt;&lt;span&gt;2、图像抓拍&lt;/span&gt;&lt;/div&gt;&lt;div style=&quot;text-align: left&quot;&gt;&lt;span&gt;3、采集皮重、净重&lt;/span&gt;&lt;/div&gt;&lt;div style=&quot;text-align: left&quot;&gt;&lt;span&gt;4、打印磅单&lt;/span&gt;&lt;/div&gt;" style="rounded=1;whiteSpace=wrap;html=1;" vertex="1" parent="3">
          <mxGeometry x="19.5" y="370" width="201" height="80" as="geometry" />
        </mxCell>
        <mxCell id="4" value="发运商(场地负责人)" style="swimlane;whiteSpace=wrap" parent="1" vertex="1">
          <mxGeometry x="480" y="60" width="230" height="570" as="geometry" />
        </mxCell>
        <mxCell id="rych2ewyiRJrFdUpB_B1-58" style="edgeStyle=orthogonalEdgeStyle;rounded=0;orthogonalLoop=1;jettySize=auto;html=1;exitX=0.5;exitY=1;exitDx=0;exitDy=0;entryX=0.5;entryY=0;entryDx=0;entryDy=0;" edge="1" parent="4" source="rych2ewyiRJrFdUpB_B1-53" target="rych2ewyiRJrFdUpB_B1-54">
          <mxGeometry relative="1" as="geometry" />
        </mxCell>
        <mxCell id="rych2ewyiRJrFdUpB_B1-53" value="场地负责人扫描司机二维码&lt;br&gt;确认发运商、煤矿、煤种、矿吨、毛重信息是否正确,不正确场地负责修改" style="rounded=1;whiteSpace=wrap;html=1;" vertex="1" parent="4">
          <mxGeometry x="30" y="213" width="180" height="64" as="geometry" />
        </mxCell>
        <mxCell id="rych2ewyiRJrFdUpB_B1-54" value="卸煤" style="rounded=1;whiteSpace=wrap;html=1;" vertex="1" parent="4">
          <mxGeometry x="30" y="330" width="180" height="54" as="geometry" />
        </mxCell>
        <mxCell id="rych2ewyiRJrFdUpB_B1-41" value="发运商财务/销售等管理层" style="swimlane;whiteSpace=wrap" vertex="1" parent="1">
          <mxGeometry x="710" y="60" width="240" height="570" as="geometry" />
        </mxCell>
        <mxCell id="rych2ewyiRJrFdUpB_B1-63" style="edgeStyle=orthogonalEdgeStyle;rounded=0;orthogonalLoop=1;jettySize=auto;html=1;exitX=0.5;exitY=1;exitDx=0;exitDy=0;entryX=0.5;entryY=0;entryDx=0;entryDy=0;" edge="1" parent="rych2ewyiRJrFdUpB_B1-41" source="rych2ewyiRJrFdUpB_B1-60" target="rych2ewyiRJrFdUpB_B1-61">
          <mxGeometry relative="1" as="geometry" />
        </mxCell>
        <mxCell id="rych2ewyiRJrFdUpB_B1-60" value="签订采购合同&lt;br&gt;输入煤种单价、运费单价、付款单" style="rounded=1;whiteSpace=wrap;html=1;" vertex="1" parent="rych2ewyiRJrFdUpB_B1-41">
          <mxGeometry x="37" y="40" width="165" height="40" as="geometry" />
        </mxCell>
        <mxCell id="rych2ewyiRJrFdUpB_B1-61" value="派车&lt;br&gt;煤矿提煤单发给司机" style="rounded=1;whiteSpace=wrap;html=1;" vertex="1" parent="rych2ewyiRJrFdUpB_B1-41">
          <mxGeometry x="37" y="90" width="165" height="30" as="geometry" />
        </mxCell>
        <mxCell id="rych2ewyiRJrFdUpB_B1-67" value="司机运费结算&lt;br&gt;1、容忍损耗处理&lt;br&gt;2、高于容忍损耗、按照规则扣除司机运费。" style="rounded=1;whiteSpace=wrap;html=1;" vertex="1" parent="rych2ewyiRJrFdUpB_B1-41">
          <mxGeometry x="40" y="400" width="175" height="70" as="geometry" />
        </mxCell>
        <mxCell id="rych2ewyiRJrFdUpB_B1-42" value="瑞鸿铁东储运财务/管理层" style="swimlane;whiteSpace=wrap" vertex="1" parent="1">
          <mxGeometry x="950" y="60" width="240" height="570" as="geometry" />
        </mxCell>
        <mxCell id="rych2ewyiRJrFdUpB_B1-68" value="对所有发运商业务进行监管" style="rounded=1;whiteSpace=wrap;html=1;" vertex="1" parent="rych2ewyiRJrFdUpB_B1-42">
          <mxGeometry x="37.5" y="400" width="162.5" height="70" as="geometry" />
        </mxCell>
        <mxCell id="rych2ewyiRJrFdUpB_B1-50" style="edgeStyle=orthogonalEdgeStyle;rounded=0;orthogonalLoop=1;jettySize=auto;html=1;exitX=1;exitY=0.5;exitDx=0;exitDy=0;entryX=0;entryY=0.5;entryDx=0;entryDy=0;" edge="1" parent="1" source="rych2ewyiRJrFdUpB_B1-45" target="rych2ewyiRJrFdUpB_B1-46">
          <mxGeometry relative="1" as="geometry">
            <mxPoint x="250" y="305" as="targetPoint" />
          </mxGeometry>
        </mxCell>
        <mxCell id="rych2ewyiRJrFdUpB_B1-57" style="edgeStyle=orthogonalEdgeStyle;rounded=0;orthogonalLoop=1;jettySize=auto;html=1;exitX=1;exitY=0.5;exitDx=0;exitDy=0;entryX=0;entryY=0.5;entryDx=0;entryDy=0;" edge="1" parent="1" source="rych2ewyiRJrFdUpB_B1-46" target="rych2ewyiRJrFdUpB_B1-53">
          <mxGeometry relative="1" as="geometry" />
        </mxCell>
        <mxCell id="rych2ewyiRJrFdUpB_B1-59" style="edgeStyle=orthogonalEdgeStyle;rounded=0;orthogonalLoop=1;jettySize=auto;html=1;exitX=0.5;exitY=1;exitDx=0;exitDy=0;entryX=1;entryY=0.5;entryDx=0;entryDy=0;" edge="1" parent="1" source="rych2ewyiRJrFdUpB_B1-54" target="rych2ewyiRJrFdUpB_B1-55">
          <mxGeometry relative="1" as="geometry" />
        </mxCell>
        <mxCell id="rych2ewyiRJrFdUpB_B1-64" style="edgeStyle=orthogonalEdgeStyle;rounded=0;orthogonalLoop=1;jettySize=auto;html=1;exitX=0;exitY=0.5;exitDx=0;exitDy=0;entryX=0.5;entryY=0;entryDx=0;entryDy=0;" edge="1" parent="1" source="rych2ewyiRJrFdUpB_B1-61" target="rych2ewyiRJrFdUpB_B1-44">
          <mxGeometry relative="1" as="geometry" />
        </mxCell>
        <mxCell id="rych2ewyiRJrFdUpB_B1-66" style="edgeStyle=orthogonalEdgeStyle;rounded=0;orthogonalLoop=1;jettySize=auto;html=1;exitX=0;exitY=0.5;exitDx=0;exitDy=0;entryX=0.5;entryY=0;entryDx=0;entryDy=0;" edge="1" parent="1" source="rych2ewyiRJrFdUpB_B1-55" target="rych2ewyiRJrFdUpB_B1-65">
          <mxGeometry relative="1" as="geometry" />
        </mxCell>
      </root>
    </mxGraphModel>
  </diagram>
</mxfile>
